<svg xmlns="http://www.w3.org/2000/svg" viewBox="0 0 64 64" fill="none">
  <rect width="64" height="64" rx="14" fill="#0a0a0a"/>
  <path d="M 32 12 C 21 12, 14 19, 14 28 C 14 33, 16 36, 19 38 L 19 39 C 23 40, 27 40, 32 40 C 38 40, 43 40, 47 38 L 47 38 C 50 36, 52 32, 52 28 C 52 19, 45 12, 32 12 Z" fill="#bef848"/>
  <g stroke="#bef848" stroke-width="4.5" stroke-linecap="round" fill="none">
    <path d="M 18 37 C 14 44, 11 47, 9 52"/>
    <path d="M 25 39 C 25 47, 24 52, 22 56"/>
    <path d="M 33 39 C 33 49, 35 54, 31 58"/>
    <path d="M 41 39 C 43 46, 47 49, 50 47"/>
    <path d="M 47 36 C 53 38, 56 33, 54 28"/>
  </g>
  <circle cx="26" cy="25" r="2.6" fill="#0a0a0a"/>
  <circle cx="38" cy="25" r="2.6" fill="#0a0a0a"/>
</svg>
